<?xml version="1.0" encoding="UTF-8"?>
<svg width="562px" height="194px" viewBox="0 0 562 194" version="1.1" xmlns="http://www.w3.org/2000/svg" xmlns:xlink="http://www.w3.org/1999/xlink">
    <!-- Generator: Sketch 64 (93537) - https://sketch.com -->
    <title>Group</title>
    <desc>Created with Sketch.</desc>
    <g id="Page-1" stroke="none" stroke-width="1" fill="none" fill-rule="evenodd">
        <g id="Desktop-HD" transform="translate(-440.000000, -151.000000)">
            <g id="Group" transform="translate(440.456000, 150.992000)">
                <path d="M218.364,62.496 C219.686667,62.496 221.257333,62.3513333 223.076,62.062 C224.894667,61.7726667 226.796,61.2973333 228.78,60.636 C230.764,59.9746667 232.727333,59.1066667 234.67,58.032 C236.612667,56.9573333 238.328,55.676 239.816,54.188 L239.816,54.188 L229.896,43.524 C228.490667,45.3426667 226.796,46.7273333 224.812,47.678 C222.828,48.6286667 220.678667,49.104 218.364,49.104 C215.636,49.104 213.197333,48.608 211.048,47.616 C208.898667,46.624 207.059333,45.3013333 205.53,43.648 C204.000667,41.9946667 202.843333,40.0933333 202.058,37.944 C201.272667,35.7946667 200.88,33.5626667 200.88,31.248 C200.88,28.9333333 201.272667,26.7013333 202.058,24.552 C202.843333,22.4026667 204.000667,20.5013333 205.53,18.848 C207.059333,17.1946667 208.898667,15.872 211.048,14.88 C213.197333,13.888 215.636,13.392 218.364,13.392 C220.348,13.392 222.290667,13.9293333 224.192,15.004 C226.093333,16.0786667 227.912,17.5253333 229.648,19.344 L229.648,19.344 L239.94,9.052 C237.046667,5.91066667 233.678,3.61666667 229.834,2.17 C225.99,0.723333333 222.166667,1.42108547e-14 218.364,1.42108547e-14 C213.9,1.42108547e-14 209.684,0.744 205.716,2.232 C201.748,3.72 198.317333,5.828 195.424,8.556 C192.530667,11.284 190.236667,14.57 188.542,18.414 C186.847333,22.258 186,26.536 186,31.248 C186,35.96 186.847333,40.238 188.542,44.082 C190.236667,47.926 192.530667,51.212 195.424,53.94 C198.317333,56.668 201.748,58.776 205.716,60.264 C209.684,61.752 213.9,62.496 218.364,62.496 Z M278.132,62.496 C282.844,62.496 287.349333,61.5866667 291.648,59.768 C295.946667,57.9493333 299.832,54.8906667 303.304,50.592 L303.304,50.592 L292.64,42.532 C290.738667,44.8466667 288.527333,46.7686667 286.006,48.298 C283.484667,49.8273333 280.364,50.592 276.644,50.592 C272.428,50.592 268.832,49.352 265.856,46.872 C262.88,44.392 261.144,40.92 260.648,36.456 L260.648,36.456 L306.032,36.456 L306.032,32.364 C306.032,27.156 305.35,22.5473333 303.986,18.538 C302.622,14.5286667 300.720667,11.16 298.282,8.432 C295.843333,5.704 292.908667,3.61666667 289.478,2.17 C286.047333,0.723333333 282.265333,1.42108547e-14 278.132,1.42108547e-14 C273.668,1.42108547e-14 269.452,0.744 265.484,2.232 C261.516,3.72 258.085333,5.828 255.192,8.556 C252.298667,11.284 250.004667,14.57 248.31,18.414 C246.615333,22.258 245.768,26.536 245.768,31.248 C245.768,35.96 246.615333,40.238 248.31,44.082 C250.004667,47.926 252.298667,51.212 255.192,53.94 C258.085333,56.668 261.516,58.776 265.484,60.264 C269.452,61.752 273.668,62.496 278.132,62.496 Z M291.152,25.296 L260.648,25.296 C261.226667,20.9973333 262.818,17.5666667 265.422,15.004 C268.026,12.4413333 271.56,11.16 276.024,11.16 C280.736,11.16 284.414667,12.4206667 287.06,14.942 C289.705333,17.4633333 291.069333,20.9146667 291.152,25.296 L291.152,25.296 Z M334.8,61.008 L334.8,28.52 C334.8,26.536 335.048,24.6346667 335.544,22.816 C336.04,20.9973333 336.846,19.3853333 337.962,17.98 C339.078,16.5746667 340.483333,15.4586667 342.178,14.632 C343.872667,13.8053333 345.96,13.392 348.44,13.392 C351.002667,13.392 353.028,13.9913333 354.516,15.19 C356.004,16.3886667 357.099333,17.8766667 357.802,19.654 C358.504667,21.4313333 358.938667,23.3326667 359.104,25.358 C359.269333,27.3833333 359.352,29.2226667 359.352,30.876 L359.352,30.876 L359.352,61.008 L374.232,61.008 L374.232,23.436 C374.232,20.3773333 373.86,17.4426667 373.116,14.632 C372.372,11.8213333 371.132,9.34133333 369.396,7.192 C367.66,5.04266667 365.407333,3.30666667 362.638,1.984 C359.868667,0.661333333 356.5,1.42108547e-14 352.532,1.42108547e-14 C347.572,1.42108547e-14 343.645333,1.09533333 340.752,3.286 C337.858667,5.47666667 335.709333,8.06 334.304,11.036 L334.304,11.036 L334.056,11.036 L334.056,1.488 L319.92,1.488 L319.92,61.008 L334.8,61.008 Z M408.952,62.496 C412.010667,62.496 415.069333,62.1653333 418.128,61.504 C421.186667,60.8426667 423.935333,59.768 426.374,58.28 C428.812667,56.792 430.796667,54.8286667 432.326,52.39 C433.855333,49.9513333 434.62,46.9546667 434.62,43.4 C434.62,39.5146667 433.834667,36.456 432.264,34.224 C430.693333,31.992 428.709333,30.2353333 426.312,28.954 C423.914667,27.6726667 421.331333,26.722 418.562,26.102 C415.792667,25.482 413.209333,24.8826667 410.812,24.304 C408.414667,23.7253333 406.430667,23.0226667 404.86,22.196 C403.289333,21.3693333 402.504,20.0466667 402.504,18.228 C402.504,15.996 403.454667,14.384 405.356,13.392 C407.257333,12.4 409.2,11.904 411.184,11.904 C416.061333,11.904 419.946667,13.9293333 422.84,17.98 L422.84,17.98 L432.76,9.052 C430.362667,5.74533333 427.221333,3.41 423.336,2.046 C419.450667,0.682 415.524,1.42108547e-14 411.556,1.42108547e-14 C408.58,1.42108547e-14 405.645333,0.372 402.752,1.116 C399.858667,1.86 397.296,3.01733333 395.064,4.588 C392.832,6.15866667 391.034,8.16333333 389.67,10.602 C388.306,13.0406667 387.624,15.9133333 387.624,19.22 C387.624,23.0226667 388.409333,25.9986667 389.98,28.148 C391.550667,30.2973333 393.534667,31.9713333 395.932,33.17 C398.329333,34.3686667 400.912667,35.2366667 403.682,35.774 C406.451333,36.3113333 409.034667,36.89 411.432,37.51 C413.829333,38.13 415.813333,38.936 417.384,39.928 C418.954667,40.92 419.74,42.4493333 419.74,44.516 C419.74,45.6733333 419.43,46.686 418.81,47.554 C418.19,48.422 417.384,49.1453333 416.392,49.724 C415.4,50.3026667 414.325333,50.716 413.168,50.964 C412.010667,51.212 410.894667,51.336 409.82,51.336 C406.678667,51.336 404.012667,50.654 401.822,49.29 C399.631333,47.926 397.585333,46.1693333 395.684,44.02 L395.684,44.02 L385.764,53.32 C388.822667,56.792 392.294667,59.1893333 396.18,60.512 C400.065333,61.8346667 404.322667,62.496 408.952,62.496 Z M467.852,62.496 C472.812,62.496 476.738667,61.4006667 479.632,59.21 C482.525333,57.0193333 484.674667,54.436 486.08,51.46 L486.08,51.46 L486.328,51.46 L486.328,61.008 L500.464,61.008 L500.464,1.488 L485.584,1.488 L485.584,33.976 C485.584,35.96 485.336,37.8613333 484.84,39.68 C484.344,41.4986667 483.538,43.1106667 482.422,44.516 C481.306,45.9213333 479.900667,47.0373333 478.206,47.864 C476.511333,48.6906667 474.424,49.104 471.944,49.104 C469.298667,49.104 467.252667,48.5046667 465.806,47.306 C464.359333,46.1073333 463.284667,44.6193333 462.582,42.842 C461.879333,41.0646667 461.445333,39.1633333 461.28,37.138 C461.114667,35.1126667 461.032,33.2733333 461.032,31.62 L461.032,31.62 L461.032,1.488 L446.152,1.488 L446.152,39.06 C446.152,42.1186667 446.524,45.0533333 447.268,47.864 C448.012,50.6746667 449.252,53.1753333 450.988,55.366 C452.724,57.5566667 454.976667,59.2926667 457.746,60.574 C460.515333,61.8553333 463.884,62.496 467.852,62.496 Z M535.184,62.496 C538.242667,62.496 541.301333,62.1653333 544.36,61.504 C547.418667,60.8426667 550.167333,59.768 552.606,58.28 C555.044667,56.792 557.028667,54.8286667 558.558,52.39 C560.087333,49.9513333 560.852,46.9546667 560.852,43.4 C560.852,39.5146667 560.066667,36.456 558.496,34.224 C556.925333,31.992 554.941333,30.2353333 552.544,28.954 C550.146667,27.6726667 547.563333,26.722 544.794,26.102 C542.024667,25.482 539.441333,24.8826667 537.044,24.304 C534.646667,23.7253333 532.662667,23.0226667 531.092,22.196 C529.521333,21.3693333 528.736,20.0466667 528.736,18.228 C528.736,15.996 529.686667,14.384 531.588,13.392 C533.489333,12.4 535.432,11.904 537.416,11.904 C542.293333,11.904 546.178667,13.9293333 549.072,17.98 L549.072,17.98 L558.992,9.052 C556.594667,5.74533333 553.453333,3.41 549.568,2.046 C545.682667,0.682 541.756,1.42108547e-14 537.788,1.42108547e-14 C534.812,1.42108547e-14 531.877333,0.372 528.984,1.116 C526.090667,1.86 523.528,3.01733333 521.296,4.588 C519.064,6.15866667 517.266,8.16333333 515.902,10.602 C514.538,13.0406667 513.856,15.9133333 513.856,19.22 C513.856,23.0226667 514.641333,25.9986667 516.212,28.148 C517.782667,30.2973333 519.766667,31.9713333 522.164,33.17 C524.561333,34.3686667 527.144667,35.2366667 529.914,35.774 C532.683333,36.3113333 535.266667,36.89 537.664,37.51 C540.061333,38.13 542.045333,38.936 543.616,39.928 C545.186667,40.92 545.972,42.4493333 545.972,44.516 C545.972,45.6733333 545.662,46.686 545.042,47.554 C544.422,48.422 543.616,49.1453333 542.624,49.724 C541.632,50.3026667 540.557333,50.716 539.4,50.964 C538.242667,51.212 537.126667,51.336 536.052,51.336 C532.910667,51.336 530.244667,50.654 528.054,49.29 C525.863333,47.926 523.817333,46.1693333 521.916,44.02 L521.916,44.02 L511.996,53.32 C515.054667,56.792 518.526667,59.1893333 522.412,60.512 C526.297333,61.8346667 530.554667,62.496 535.184,62.496 Z" id="census" fill="#242424" fill-rule="nonzero"></path>
                <path d="M29.388,165.496 C33.604,165.496 37.5306667,164.669333 41.168,163.016 C44.8053333,161.362667 47.6986667,158.717333 49.848,155.08 L49.848,155.08 L50.096,155.08 L50.096,164.008 L64.232,164.008 L64.232,70.264 L49.352,70.264 L49.352,112.052 L48.98,112.052 C48.236,111.06 47.2853333,110.047333 46.128,109.014 C44.9706667,107.980667 43.5653333,107.009333 41.912,106.1 C40.2586667,105.190667 38.3573333,104.446667 36.208,103.868 C34.0586667,103.289333 31.5786667,103 28.768,103 C24.552,103 20.6666667,103.806 17.112,105.418 C13.5573333,107.03 10.5193333,109.241333 7.998,112.052 C5.47666667,114.862667 3.51333333,118.169333 2.108,121.972 C0.702666667,125.774667 0,129.866667 0,134.248 C0,138.629333 0.661333333,142.721333 1.984,146.524 C3.30666667,150.326667 5.24933333,153.633333 7.812,156.444 C10.3746667,159.254667 13.454,161.466 17.05,163.078 C20.646,164.69 24.7586667,165.496 29.388,165.496 Z M32.364,152.104 C29.636,152.104 27.1973333,151.608 25.048,150.616 C22.8986667,149.624 21.0593333,148.301333 19.53,146.648 C18.0006667,144.994667 16.8433333,143.093333 16.058,140.944 C15.2726667,138.794667 14.88,136.562667 14.88,134.248 C14.88,131.933333 15.2726667,129.701333 16.058,127.552 C16.8433333,125.402667 18.0006667,123.501333 19.53,121.848 C21.0593333,120.194667 22.8986667,118.872 25.048,117.88 C27.1973333,116.888 29.636,116.392 32.364,116.392 C35.092,116.392 37.5306667,116.888 39.68,117.88 C41.8293333,118.872 43.6686667,120.194667 45.198,121.848 C46.7273333,123.501333 47.8846667,125.402667 48.67,127.552 C49.4553333,129.701333 49.848,131.933333 49.848,134.248 C49.848,136.562667 49.4553333,138.794667 48.67,140.944 C47.8846667,143.093333 46.7273333,144.994667 45.198,146.648 C43.6686667,148.301333 41.8293333,149.624 39.68,150.616 C37.5306667,151.608 35.092,152.104 32.364,152.104 Z M110.484,165.496 C115.196,165.496 119.701333,164.586667 124,162.768 C128.298667,160.949333 132.184,157.890667 135.656,153.592 L135.656,153.592 L124.992,145.532 C123.090667,147.846667 120.879333,149.768667 118.358,151.298 C115.836667,152.827333 112.716,153.592 108.996,153.592 C104.78,153.592 101.184,152.352 98.208,149.872 C95.232,147.392 93.496,143.92 93,139.456 L93,139.456 L138.384,139.456 L138.384,135.364 C138.384,130.156 137.702,125.547333 136.338,121.538 C134.974,117.528667 133.072667,114.16 130.634,111.432 C128.195333,108.704 125.260667,106.616667 121.83,105.17 C118.399333,103.723333 114.617333,103 110.484,103 C106.02,103 101.804,103.744 97.836,105.232 C93.868,106.72 90.4373333,108.828 87.544,111.556 C84.6506667,114.284 82.3566667,117.57 80.662,121.414 C78.9673333,125.258 78.12,129.536 78.12,134.248 C78.12,138.96 78.9673333,143.238 80.662,147.082 C82.3566667,150.926 84.6506667,154.212 87.544,156.94 C90.4373333,159.668 93.868,161.776 97.836,163.264 C101.804,164.752 106.02,165.496 110.484,165.496 Z M123.504,128.296 L93,128.296 C93.5786667,123.997333 95.17,120.566667 97.774,118.004 C100.378,115.441333 103.912,114.16 108.376,114.16 C113.088,114.16 116.766667,115.420667 119.412,117.942 C122.057333,120.463333 123.421333,123.914667 123.504,128.296 L123.504,128.296 Z M170.128,165.496 C173.186667,165.496 176.245333,165.165333 179.304,164.504 C182.362667,163.842667 185.111333,162.768 187.55,161.28 C189.988667,159.792 191.972667,157.828667 193.502,155.39 C195.031333,152.951333 195.796,149.954667 195.796,146.4 C195.796,142.514667 195.010667,139.456 193.44,137.224 C191.869333,134.992 189.885333,133.235333 187.488,131.954 C185.090667,130.672667 182.507333,129.722 179.738,129.102 C176.968667,128.482 174.385333,127.882667 171.988,127.304 C169.590667,126.725333 167.606667,126.022667 166.036,125.196 C164.465333,124.369333 163.68,123.046667 163.68,121.228 C163.68,118.996 164.630667,117.384 166.532,116.392 C168.433333,115.4 170.376,114.904 172.36,114.904 C177.237333,114.904 181.122667,116.929333 184.016,120.98 L184.016,120.98 L193.936,112.052 C191.538667,108.745333 188.397333,106.41 184.512,105.046 C180.626667,103.682 176.7,103 172.732,103 C169.756,103 166.821333,103.372 163.928,104.116 C161.034667,104.86 158.472,106.017333 156.24,107.588 C154.008,109.158667 152.21,111.163333 150.846,113.602 C149.482,116.040667 148.8,118.913333 148.8,122.22 C148.8,126.022667 149.585333,128.998667 151.156,131.148 C152.726667,133.297333 154.710667,134.971333 157.108,136.17 C159.505333,137.368667 162.088667,138.236667 164.858,138.774 C167.627333,139.311333 170.210667,139.89 172.608,140.51 C175.005333,141.13 176.989333,141.936 178.56,142.928 C180.130667,143.92 180.916,145.449333 180.916,147.516 C180.916,148.673333 180.606,149.686 179.986,150.554 C179.366,151.422 178.56,152.145333 177.568,152.724 C176.576,153.302667 175.501333,153.716 174.344,153.964 C173.186667,154.212 172.070667,154.336 170.996,154.336 C167.854667,154.336 165.188667,153.654 162.998,152.29 C160.807333,150.926 158.761333,149.169333 156.86,147.02 L156.86,147.02 L146.94,156.32 C149.998667,159.792 153.470667,162.189333 157.356,163.512 C161.241333,164.834667 165.498667,165.496 170.128,165.496 Z M214.892,93.204 C217.62,93.204 219.914,92.3566667 221.774,90.662 C223.634,88.9673333 224.564,86.8386667 224.564,84.276 C224.564,81.7133333 223.634,79.5846667 221.774,77.89 C219.914,76.1953333 217.62,75.348 214.892,75.348 C212.164,75.348 209.911333,76.2366667 208.134,78.014 C206.356667,79.7913333 205.468,81.8786667 205.468,84.276 C205.468,86.6733333 206.356667,88.7606667 208.134,90.538 C209.911333,92.3153333 212.164,93.204 214.892,93.204 Z M222.456,164.008 L222.456,104.488 L207.576,104.488 L207.576,164.008 L222.456,164.008 Z M267.22,193.768 C273.006667,193.768 278.008,192.941333 282.224,191.288 C286.44,189.634667 289.932667,187.299333 292.702,184.282 C295.471333,181.264667 297.517333,177.586 298.84,173.246 C300.162667,168.906 300.824,164.049333 300.824,158.676 L300.824,158.676 L300.824,104.488 L286.688,104.488 L286.688,113.416 L286.44,113.416 C284.290667,109.778667 281.397333,107.133333 277.76,105.48 C274.122667,103.826667 270.196,103 265.98,103 C261.350667,103 257.238,103.806 253.642,105.418 C250.046,107.03 246.966667,109.241333 244.404,112.052 C241.841333,114.862667 239.898667,118.169333 238.576,121.972 C237.253333,125.774667 236.592,129.866667 236.592,134.248 C236.592,138.464 237.294667,142.432 238.7,146.152 C240.105333,149.872 242.11,153.096 244.714,155.824 C247.318,158.552 250.438667,160.722 254.076,162.334 C257.713333,163.946 261.764,164.752 266.228,164.752 C269.948,164.752 273.585333,164.028667 277.14,162.582 C280.694667,161.135333 283.546667,158.965333 285.696,156.072 L285.696,156.072 L285.944,156.072 L285.944,160.412 C285.944,163.388 285.634,166.095333 285.014,168.534 C284.394,170.972667 283.360667,173.06 281.914,174.796 C280.467333,176.532 278.524667,177.896 276.086,178.888 C273.647333,179.88 270.650667,180.376 267.096,180.376 C262.88,180.376 259.16,179.632 255.936,178.144 C252.712,176.656 249.612,174.548 246.636,171.82 L246.636,171.82 L237.708,183.972 C241.924,187.692 246.512,190.254667 251.472,191.66 C256.432,193.065333 261.681333,193.768 267.22,193.768 Z M268.956,151.36 C266.476,151.36 264.161333,150.905333 262.012,149.996 C259.862667,149.086667 258.002667,147.846667 256.432,146.276 C254.861333,144.705333 253.642,142.886667 252.774,140.82 C251.906,138.753333 251.472,136.521333 251.472,134.124 C251.472,131.478667 251.906,129.060667 252.774,126.87 C253.642,124.679333 254.840667,122.819333 256.37,121.29 C257.899333,119.760667 259.738667,118.562 261.888,117.694 C264.037333,116.826 266.434667,116.392 269.08,116.392 C274.536,116.392 278.834667,118.004 281.976,121.228 C285.117333,124.452 286.688,128.668 286.688,133.876 C286.688,136.356 286.274667,138.670667 285.448,140.82 C284.621333,142.969333 283.443333,144.808667 281.914,146.338 C280.384667,147.867333 278.524667,149.086667 276.334,149.996 C274.143333,150.905333 271.684,151.36 268.956,151.36 Z M332.568,164.008 L332.568,131.52 C332.568,129.536 332.816,127.634667 333.312,125.816 C333.808,123.997333 334.614,122.385333 335.73,120.98 C336.846,119.574667 338.251333,118.458667 339.946,117.632 C341.640667,116.805333 343.728,116.392 346.208,116.392 C348.770667,116.392 350.796,116.991333 352.284,118.19 C353.772,119.388667 354.867333,120.876667 355.57,122.654 C356.272667,124.431333 356.706667,126.332667 356.872,128.358 C357.037333,130.383333 357.12,132.222667 357.12,133.876 L357.12,133.876 L357.12,164.008 L372,164.008 L372,126.436 C372,123.377333 371.628,120.442667 370.884,117.632 C370.14,114.821333 368.9,112.341333 367.164,110.192 C365.428,108.042667 363.175333,106.306667 360.406,104.984 C357.636667,103.661333 354.268,103 350.3,103 C345.34,103 341.413333,104.095333 338.52,106.286 C335.626667,108.476667 333.477333,111.06 332.072,114.036 L332.072,114.036 L331.824,114.036 L331.824,104.488 L317.688,104.488 L317.688,164.008 L332.568,164.008 Z" id="design" fill="#242424" fill-rule="nonzero"></path>
                <circle id="Oval" fill="#00A678" cx="215.044" cy="84.508" r="9.5"></circle>
            </g>
        </g>
    </g>
</svg>